<svg width="50" height="50" viewBox="0 0 50 50" fill="none" xmlns="http://www.w3.org/2000/svg">
<path d="M31.1521 3.5L31.1536 3.49999C33.2464 3.49362 35.3381 3.60093 37.4193 3.82145C37.5477 3.83954 37.6654 3.9031 37.751 4.00067C37.8377 4.09954 37.8855 4.22658 37.8854 4.35809V4.35833V11.5354C37.8854 11.6791 37.8283 11.8168 37.7267 11.9184C37.6252 12.02 37.4874 12.0771 37.3437 12.0771H33.0958C31.8129 12.0771 30.8811 12.2827 30.3099 12.917C29.7506 13.538 29.6625 14.4414 29.6625 15.4417V19.5229V20.0229H30.1625H37.0646H37.0648C37.1419 20.0229 37.2181 20.0393 37.2884 20.0711C37.3586 20.1029 37.4213 20.1493 37.4721 20.2072C37.523 20.2652 37.5609 20.3333 37.5833 20.4071C37.6058 20.4808 37.6122 20.5585 37.6021 20.635L37.602 20.636L36.5667 28.6558C36.5667 28.6561 36.5667 28.6564 36.5666 28.6567C36.5494 28.7867 36.4855 28.9061 36.3868 28.9927C36.2879 29.0794 36.1609 29.1271 36.0294 29.1271H36.0291H30.1625H29.6625V29.6271V45.7104C29.6625 45.8541 29.6054 45.9918 29.5038 46.0934C29.4022 46.195 29.2645 46.2521 29.1208 46.2521H20.8333C20.6897 46.2521 20.5519 46.195 20.4503 46.0934C20.3487 45.9918 20.2916 45.8541 20.2916 45.7104V29.6271V29.1271H19.7916H13.9062C13.7626 29.1271 13.6248 29.07 13.5232 28.9684C13.4216 28.8668 13.3646 28.7291 13.3646 28.5854V20.5646C13.3646 20.4209 13.4216 20.2831 13.5232 20.1816C13.6248 20.08 13.7626 20.0229 13.9062 20.0229H19.7916H20.2916V19.5229V14.6458C20.2916 11.1553 21.3478 8.37942 23.2024 6.47831C25.0557 4.57863 27.7573 3.5 31.1521 3.5ZM36.3024 10.9917L36.8021 10.9913V10.4917V5.29791V4.8395L36.3454 4.79979C35.1833 4.69874 33.2707 4.58333 31.1521 4.58333C28.1439 4.58333 25.6837 5.51153 23.9765 7.2711C22.2713 9.02874 21.375 11.5566 21.375 14.6458V20.5667C21.375 20.7103 21.3179 20.8481 21.2163 20.9497C21.1147 21.0513 20.977 21.1083 20.8333 21.1083H14.95H14.45V21.6083V27.5458V28.0458H14.95H20.8333C20.977 28.0458 21.1147 28.1029 21.2163 28.2045C21.3179 28.3061 21.375 28.4438 21.375 28.5875V44.6667V45.1667H21.875H28.0791H28.5791V44.6667V28.5875C28.5791 28.4438 28.6362 28.3061 28.7378 28.2045C28.8394 28.1029 28.9772 28.0458 29.1208 28.0458H35.1125H35.5519L35.6083 27.61L36.3771 21.6725L36.4501 21.1083H35.8812L29.1197 21.1083C29.1195 21.1083 29.1193 21.1083 29.119 21.1083C28.9758 21.1079 28.8386 21.0507 28.7374 20.9493C28.6361 20.8477 28.5791 20.7101 28.5791 20.5667V15.4417C28.5791 14.4023 28.7115 13.3001 29.3086 12.4617C29.8808 11.6581 30.9582 10.9937 33.0937 10.9937H33.0941L36.3024 10.9917Z" fill="#800083" stroke="white"/>
</svg>
