<svg width="53" height="53" viewBox="0 0 53 53" fill="none" xmlns="http://www.w3.org/2000/svg">
<path d="M33.655 26.5C33.655 22.525 30.475 19.345 26.5 19.345C22.525 19.345 19.345 22.525 19.345 26.5C19.345 30.475 22.525 33.655 26.5 33.655C30.475 33.655 33.655 30.475 33.655 26.5ZM37.365 26.5C37.365 32.595 32.595 37.365 26.5 37.365C20.405 37.365 15.635 32.595 15.635 26.5C15.635 20.405 20.405 15.635 26.5 15.635C32.595 15.635 37.365 20.405 37.365 26.5ZM40.28 15.105C40.28 16.695 39.22 17.755 37.63 17.755C36.04 17.755 34.98 16.695 34.98 15.105C34.98 13.515 36.04 12.455 37.63 12.455C39.22 12.455 40.28 13.78 40.28 15.105ZM26.5 9.01C26.0202 9.01 25.4621 9.00397 24.851 8.99737C21.4115 8.9602 16.2952 8.90492 14.045 9.805C12.19 10.6 10.6 12.19 10.07 14.045C9.1699 16.2952 9.22519 21.4116 9.26235 24.851C9.26896 25.4621 9.27499 26.0203 9.27499 26.5C9.27499 26.9797 9.26896 27.5379 9.26235 28.149C9.22519 31.5885 9.1699 36.7048 10.07 38.955C10.6 40.81 12.19 42.4 14.045 42.93C16.3047 43.8339 21.6475 43.7743 24.9796 43.7372C25.5551 43.7308 26.0707 43.725 26.5 43.725C26.9293 43.725 27.4448 43.7308 28.0203 43.7372C31.3525 43.7743 36.6953 43.8339 38.955 42.93C40.81 42.135 42.135 40.81 42.93 38.955C43.833 36.4716 43.7744 31.2955 43.7373 28.0148C43.7308 27.4446 43.725 26.9316 43.725 26.5C43.725 26.0707 43.7307 25.5552 43.7372 24.9797C43.7743 21.6475 43.8339 16.3047 42.93 14.045C42.4 12.19 40.81 10.6 38.955 10.07C36.6499 8.91745 31.3372 8.96796 27.9004 9.00063C27.3861 9.00551 26.9139 9.01 26.5 9.01ZM47.7 26.5V35.245C47.7 38.425 46.64 41.605 44.255 44.255C41.87 46.64 38.69 47.7 35.245 47.7H17.755C14.575 47.7 11.395 46.64 8.74499 44.255C6.62499 41.87 5.29999 38.69 5.29999 35.245V26.5V17.755C5.29999 14.31 6.62499 11.13 8.74499 8.745C11.395 6.625 14.575 5.3 17.755 5.3H35.245C38.425 5.3 41.605 6.36 44.255 8.745C46.375 11.13 47.7 14.31 47.7 17.755V26.5Z" fill="white"/>
<path d="M33.655 26.5C33.655 22.525 30.475 19.345 26.5 19.345C22.525 19.345 19.345 22.525 19.345 26.5C19.345 30.475 22.525 33.655 26.5 33.655C30.475 33.655 33.655 30.475 33.655 26.5ZM37.365 26.5C37.365 32.595 32.595 37.365 26.5 37.365C20.405 37.365 15.635 32.595 15.635 26.5C15.635 20.405 20.405 15.635 26.5 15.635C32.595 15.635 37.365 20.405 37.365 26.5ZM40.28 15.105C40.28 16.695 39.22 17.755 37.63 17.755C36.04 17.755 34.98 16.695 34.98 15.105C34.98 13.515 36.04 12.455 37.63 12.455C39.22 12.455 40.28 13.78 40.28 15.105ZM26.5 9.01C26.0202 9.01 25.4621 9.00397 24.851 8.99737C21.4115 8.9602 16.2952 8.90492 14.045 9.805C12.19 10.6 10.6 12.19 10.07 14.045C9.1699 16.2952 9.22519 21.4116 9.26235 24.851C9.26896 25.4621 9.27499 26.0203 9.27499 26.5C9.27499 26.9797 9.26896 27.5379 9.26235 28.149C9.22519 31.5885 9.1699 36.7048 10.07 38.955C10.6 40.81 12.19 42.4 14.045 42.93C16.3047 43.8339 21.6475 43.7743 24.9796 43.7372C25.5551 43.7308 26.0707 43.725 26.5 43.725C26.9293 43.725 27.4448 43.7308 28.0203 43.7372C31.3525 43.7743 36.6953 43.8339 38.955 42.93C40.81 42.135 42.135 40.81 42.93 38.955C43.833 36.4716 43.7744 31.2955 43.7373 28.0148C43.7308 27.4446 43.725 26.9316 43.725 26.5C43.725 26.0707 43.7307 25.5552 43.7372 24.9797C43.7743 21.6475 43.8339 16.3047 42.93 14.045C42.4 12.19 40.81 10.6 38.955 10.07C36.6499 8.91745 31.3372 8.96796 27.9004 9.00063C27.3861 9.00551 26.9139 9.01 26.5 9.01ZM47.7 26.5V35.245C47.7 38.425 46.64 41.605 44.255 44.255C41.87 46.64 38.69 47.7 35.245 47.7H17.755C14.575 47.7 11.395 46.64 8.74499 44.255C6.62499 41.87 5.29999 38.69 5.29999 35.245V26.5V17.755C5.29999 14.31 6.62499 11.13 8.74499 8.745C11.395 6.625 14.575 5.3 17.755 5.3H35.245C38.425 5.3 41.605 6.36 44.255 8.745C46.375 11.13 47.7 14.31 47.7 17.755V26.5Z" stroke="white"/>
</svg>
