<svg width="90" height="90" viewBox="0 0 90 90" fill="none" xmlns="http://www.w3.org/2000/svg">
<circle cx="45" cy="45" r="43" fill="white" stroke="#FA5151" stroke-width="4"/>
<path d="M63.5368 34.1762C63.1887 33.6539 62.4878 33.516 61.9701 33.8574C61.4501 34.2011 61.3077 34.9041 61.6513 35.4241C63.9845 38.9464 65.2166 43.0407 65.2166 47.2615C65.2166 59.1035 55.5811 68.7389 43.7392 68.7389C31.8972 68.7389 22.2617 59.1036 22.2617 47.2616C22.2617 35.4197 31.8972 25.7842 43.7392 25.7842C47.96 25.7842 52.0543 27.0186 55.5766 29.3495C56.0943 29.6908 56.7952 29.5529 57.1433 29.0307C57.487 28.5107 57.3422 27.8076 56.8245 27.464C52.9292 24.8867 48.4054 23.5234 43.7392 23.5234C30.6493 23.5234 20.001 34.1717 20.001 47.2616C20.001 60.3515 30.6493 70.9998 43.7392 70.9998C56.8291 70.9998 67.4774 60.3515 67.4774 47.2616C67.4774 42.5954 66.1163 38.0692 63.5368 34.1762Z" fill="black"/>
<path d="M43.7393 41.6094C40.6217 41.6094 38.0874 44.146 38.0874 47.2613C38.0874 50.3766 40.6218 52.9132 43.7393 52.9132C46.857 52.9132 49.3912 50.3766 49.3912 47.2613C49.3912 44.146 46.8569 41.6094 43.7393 41.6094ZM43.7393 50.6526C41.8696 50.6526 40.3481 49.1311 40.3481 47.2614C40.3481 45.3917 41.8696 43.8702 43.7393 43.8702C45.609 43.8702 47.1305 45.3917 47.1305 47.2614C47.1305 49.131 45.6089 50.6526 43.7393 50.6526Z" fill="black"/>
<path d="M71.9137 24.2221C71.7396 23.7994 71.3258 23.5236 70.8692 23.5236H67.478V20.1324C67.478 19.6758 67.2022 19.2643 66.7795 19.0879C66.359 18.9093 65.8728 19.0088 65.5473 19.3321L61.0258 23.8536C60.8156 24.066 60.6957 24.3532 60.6957 24.6539V28.7075L42.9395 46.4637C42.4987 46.9045 42.4987 47.6212 42.9395 48.0621C43.1611 48.2813 43.4504 48.3922 43.7398 48.3922C44.0293 48.3922 44.3186 48.2814 44.5379 48.0621L62.2941 30.3059H66.3477C66.6484 30.3059 66.9356 30.1884 67.148 29.9758L71.6696 25.4542C71.9905 25.131 72.0877 24.6449 71.9137 24.2221ZM65.8796 28.0451H62.9564V25.1219L65.2172 22.8611V24.6539C65.2172 25.2779 65.7236 25.7843 66.3476 25.7843H68.1404L65.8796 28.0451Z" fill="black"/>
<path d="M56.9875 40.9357C56.7162 40.3682 56.0358 40.1332 55.4796 40.4045C54.9167 40.6758 54.6793 41.3494 54.9484 41.9124C55.76 43.6102 56.1738 45.4098 56.1738 47.2614C56.1738 54.1184 50.5941 59.6957 43.7395 59.6957C36.8849 59.6957 31.305 54.1184 31.305 47.2614C31.305 40.4045 36.8847 34.8272 43.7393 34.8272C45.5909 34.8272 47.3904 35.2386 49.086 36.0502C49.6489 36.3193 50.325 36.0819 50.5939 35.5189C50.863 34.956 50.6256 34.2823 50.0627 34.011C48.0596 33.0525 45.9322 32.5664 43.7393 32.5664C35.6366 32.5664 29.0442 39.1588 29.0442 47.2615C29.0442 55.3642 35.6366 61.9566 43.7393 61.9566C51.842 61.9566 58.4344 55.3642 58.4344 47.2615C58.4345 45.0684 57.9484 42.9411 56.9875 40.9357Z" fill="black"/>
</svg>
