<svg width="90" height="90" viewBox="0 0 90 90" fill="none" xmlns="http://www.w3.org/2000/svg">
<circle cx="45" cy="45" r="43" fill="white" stroke="#FA5151" stroke-width="4"/>
<path d="M45 33.6084C41.6449 33.6084 38.9131 36.3402 38.9131 39.6953C38.9131 43.0504 41.6449 45.7822 45 45.7822C48.3551 45.7822 51.0869 43.0504 51.0869 39.6953C51.0869 36.3402 48.3552 33.6084 45 33.6084ZM45 43.3475C42.9864 43.3475 41.3478 41.7089 41.3478 39.6953C41.3478 37.6817 42.9864 36.0431 45 36.0431C47.0136 36.0431 48.6522 37.6817 48.6522 39.6953C48.6522 41.7089 47.0136 43.3475 45 43.3475Z" fill="black"/>
<path d="M45 43.3477C38.9593 43.3477 34.0435 48.2635 34.0435 54.3042C34.0435 54.9761 34.5889 55.5216 35.2609 55.5216H54.7392C55.4112 55.5216 55.9566 54.9761 55.9566 54.3042C55.9565 48.2635 51.0406 43.3477 45 43.3477ZM36.566 53.0868C37.1576 48.9623 40.7172 45.7825 45.0025 45.7825C49.2877 45.7825 52.8449 48.9623 53.4366 53.0868H36.566Z" fill="black"/>
<path d="M30.3911 23.8691C27.036 23.8691 24.3042 26.601 24.3042 29.956C24.3042 33.3111 27.036 36.043 30.3911 36.043C33.7462 36.043 36.4781 33.3111 36.4781 29.956C36.4781 26.601 33.7463 23.8691 30.3911 23.8691ZM30.3911 33.6082C28.3775 33.6082 26.7389 31.9697 26.7389 29.956C26.7389 27.9424 28.3775 26.3039 30.3911 26.3039C32.4047 26.3039 34.0433 27.9424 34.0433 29.956C34.0433 31.9697 32.4047 33.6082 30.3911 33.6082Z" fill="black"/>
<path d="M23.0869 40.9131C19.7318 40.9131 17 43.6449 17 47C17 50.3551 19.7318 53.0869 23.0869 53.0869C26.442 53.0869 29.1738 50.3551 29.1738 47C29.1738 43.6449 26.4421 40.9131 23.0869 40.9131ZM23.0869 50.6522C21.0733 50.6522 19.4347 49.0136 19.4347 47C19.4347 44.9864 21.0733 43.3478 23.0869 43.3478C25.1005 43.3478 26.7391 44.9864 26.7391 47C26.7391 49.0136 25.1005 50.6522 23.0869 50.6522Z" fill="black"/>
<path d="M30.3911 57.9561C27.036 57.9561 24.3042 60.6879 24.3042 64.0431C24.3042 67.3983 27.036 70.13 30.3911 70.13C33.7462 70.13 36.478 67.3982 36.478 64.0431C36.478 60.688 33.7463 57.9561 30.3911 57.9561ZM30.3911 67.6953C28.3775 67.6953 26.7389 66.0567 26.7389 64.0431C26.7389 62.0295 28.3775 60.3909 30.3911 60.3909C32.4047 60.3909 34.0433 62.0295 34.0433 64.0431C34.0433 66.0566 32.4047 67.6953 30.3911 67.6953Z" fill="black"/>
<path d="M59.6086 57.9561C56.2536 57.9561 53.5217 60.6879 53.5217 64.043C53.5217 67.3981 56.2536 70.13 59.6086 70.13C62.9637 70.13 65.6956 67.3982 65.6956 64.0431C65.6956 60.688 62.9638 57.9561 59.6086 57.9561ZM59.6086 67.6953C57.595 67.6953 55.9565 66.0567 55.9565 64.0431C55.9565 62.0295 57.595 60.3909 59.6086 60.3909C61.6222 60.3909 63.2608 62.0295 63.2608 64.0431C63.2608 66.0566 61.6222 67.6953 59.6086 67.6953Z" fill="black"/>
<path d="M66.9131 40.9131C63.558 40.9131 60.8262 43.6449 60.8262 47C60.8262 50.3551 63.558 53.0869 66.9131 53.0869C70.2682 53.0869 73 50.3551 73 47C73 43.6449 70.2683 40.9131 66.9131 40.9131ZM66.9131 50.6522C64.8995 50.6522 63.2609 49.0136 63.2609 47C63.2609 44.9864 64.8995 43.3478 66.9131 43.3478C68.9267 43.3478 70.5653 44.9864 70.5653 47C70.5653 49.0136 68.9267 50.6522 66.9131 50.6522Z" fill="black"/>
<path d="M59.6086 23.8691C56.2536 23.8691 53.5217 26.601 53.5217 29.956C53.5217 33.3111 56.2536 36.043 59.6086 36.043C62.9637 36.043 65.6957 33.3111 65.6957 29.956C65.6957 26.601 62.9639 23.8691 59.6086 23.8691ZM59.6086 33.6082C57.595 33.6082 55.9565 31.9697 55.9565 29.956C55.9565 27.9424 57.595 26.3039 59.6086 26.3039C61.6222 26.3039 63.2608 27.9424 63.2608 29.956C63.2608 31.9697 61.6222 33.6082 59.6086 33.6082Z" fill="black"/>
<path d="M37.3374 35.1844L34.9027 32.7496C34.4279 32.2749 33.6561 32.2749 33.1813 32.7496C32.7065 33.2244 32.7065 33.9963 33.1813 34.4711L35.616 36.9058C35.8547 37.142 36.1662 37.2613 36.4779 37.2613C36.7896 37.2613 37.1012 37.1421 37.3374 36.9058C37.8122 36.4309 37.8122 35.6592 37.3374 35.1844Z" fill="black"/>
<path d="M32.826 45.7822H27.9564C27.2844 45.7822 26.739 46.3277 26.739 46.9997C26.739 47.6717 27.2844 48.217 27.9564 48.217H32.826C33.498 48.217 34.0435 47.6715 34.0435 46.9995C34.0435 46.3275 33.498 45.7822 32.826 45.7822Z" fill="black"/>
<path d="M37.3374 57.0973C36.8627 56.6225 36.0908 56.6225 35.616 57.0973L33.1813 59.532C32.7065 60.0068 32.7065 60.7787 33.1813 61.2535C33.4199 61.4896 33.7315 61.609 34.0432 61.609C34.3549 61.609 34.6665 61.4897 34.9027 61.2535L37.3374 58.8187C37.8122 58.3438 37.8122 57.5721 37.3374 57.0973Z" fill="black"/>
<path d="M56.8157 59.532L54.381 57.0973C53.9062 56.6225 53.1343 56.6225 52.6596 57.0973C52.1848 57.5721 52.1848 58.3439 52.6596 58.8187L55.0943 61.2535C55.3329 61.4896 55.6445 61.609 55.9562 61.609C56.2679 61.609 56.5795 61.4897 56.8157 61.2535C57.2905 60.7787 57.2905 60.0068 56.8157 59.532Z" fill="black"/>
<path d="M62.0433 45.7822H57.1737C56.5017 45.7822 55.9563 46.3277 55.9563 46.9997C55.9563 47.6717 56.5017 48.217 57.1737 48.217H62.0433C62.7153 48.217 63.2608 47.6715 63.2608 46.9995C63.2608 46.3275 62.7153 45.7822 62.0433 45.7822Z" fill="black"/>
<path d="M56.8157 32.7496C56.3409 32.2749 55.5691 32.2749 55.0943 32.7496L52.6596 35.1844C52.1848 35.6592 52.1848 36.431 52.6596 36.9058C52.8982 37.1419 53.2098 37.2613 53.5215 37.2613C53.8331 37.2613 54.1447 37.1421 54.381 36.9058L56.8157 34.4711C57.2905 33.9963 57.2905 33.2244 56.8157 32.7496Z" fill="black"/>
</svg>
