<svg width="90" height="90" viewBox="0 0 90 90" fill="none" xmlns="http://www.w3.org/2000/svg">
<circle cx="45" cy="45" r="43" fill="white" stroke="#FA5151" stroke-width="4"/>
<g clip-path="url(#clip0)">
<path d="M60.9535 53.3121C59.8859 51.0863 56.0666 47.9967 52.3765 45.0115C50.3183 43.3477 48.3735 41.7747 47.1337 40.5349C46.8231 40.2221 46.3585 40.1223 45.9483 40.2697C45.1844 40.5463 44.7129 40.7593 44.3412 40.9247C43.7746 41.1785 43.5842 41.2647 42.8203 41.3417C42.4825 41.3757 42.1788 41.5571 41.9907 41.8381C40.3881 44.234 38.7289 44.03 37.6205 43.6583C37.2669 43.5405 37.2035 43.3885 37.1695 43.2435C36.9315 42.2485 38.126 39.9319 39.6741 38.3837C43.3575 34.6981 45.2569 33.7756 49.2689 35.5685C53.8203 37.604 58.3809 39.1975 58.4263 39.2133C59.0224 39.4196 59.6639 39.1068 59.8701 38.5152C60.0741 37.9236 59.7635 37.2776 59.1719 37.0713C59.1266 37.0555 54.6567 35.4937 50.1959 33.4968C44.9985 31.1734 42.147 32.7034 38.0738 36.7789C36.5234 38.3293 34.4176 41.4664 34.9616 43.7671C35.195 44.7463 35.8842 45.4717 36.9086 45.8093C39.4768 46.6571 41.8205 45.8456 43.5658 43.5291C44.2866 43.4181 44.6788 43.2549 45.2681 42.9897C45.4811 42.8945 45.7305 42.7835 46.0614 42.6497C47.358 43.8669 49.1078 45.2835 50.9506 46.7727C54.2826 49.4677 58.0612 52.5233 58.9112 54.2913C59.3306 55.1639 58.8794 55.7329 58.5734 55.9935C58.1246 56.3789 57.5104 56.5013 57.1772 56.2677C56.81 56.0161 56.3318 56.0003 55.9532 56.2269C55.5724 56.4536 55.3594 56.882 55.407 57.3217C55.484 58.0425 54.8244 58.4551 54.5388 58.5979C53.8134 58.9651 53.0564 58.9017 52.773 58.6387C52.4557 58.3441 52.0001 58.2579 51.5966 58.4075C51.1932 58.5593 50.9121 58.9311 50.8713 59.3617C50.8033 60.1052 50.2525 60.8192 49.5339 61.098C49.1871 61.2294 48.6839 61.3088 48.2329 60.8962C47.9518 60.6424 47.5619 60.5448 47.197 60.6332C46.8276 60.7239 46.5306 60.9914 46.4014 61.3472C46.3584 61.4606 46.2609 61.7326 45.2001 61.7326C44.4453 61.7326 43.0875 61.2226 42.4234 60.7828C41.6278 60.2592 36.6389 56.5374 32.33 52.9288C31.7248 52.4188 30.6776 51.3263 29.7528 50.3607C28.9322 49.5039 28.182 48.7264 27.7966 48.4C27.3138 47.992 26.5998 48.0532 26.1986 48.5338C25.7952 49.012 25.8541 49.7284 26.3324 50.1318C26.6838 50.4288 27.3638 51.1472 28.114 51.9292C29.125 52.9855 30.1698 54.078 30.8726 54.6674C35.0931 58.2012 40.1659 62.016 41.1768 62.68C42.011 63.2286 43.8084 63.9992 45.2002 63.9992C46.3176 63.9992 47.1767 63.7431 47.7728 63.2422C48.5706 63.5528 49.4774 63.555 50.35 63.215C51.3814 62.816 52.229 62.0114 52.7096 61.0368C53.6026 61.2272 54.625 61.0934 55.5542 60.6265C56.4632 60.1687 57.1205 59.4683 57.4469 58.65C58.349 58.6976 59.2783 58.378 60.0467 57.7184C61.3479 56.6055 61.706 54.8739 60.9535 53.3121Z" fill="black"/>
<path d="M40.6666 34.5332H30.4666C29.841 34.5332 29.3333 35.041 29.3333 35.6666C29.3333 36.2922 29.841 36.7999 30.4666 36.7999H40.6666C41.2922 36.7999 41.8 36.2922 41.8 35.6666C41.8 35.041 41.2922 34.5332 40.6666 34.5332Z" fill="black"/>
<path d="M64.2741 50.9004C63.9227 50.3814 63.2201 50.2386 62.7011 50.5922L59.3872 52.818C58.8682 53.167 58.7299 53.872 59.079 54.391C59.2988 54.7152 59.657 54.892 60.022 54.892C60.2373 54.892 60.4572 54.8308 60.6521 54.6994L63.966 52.4736C64.4849 52.1244 64.6231 51.4196 64.2741 50.9004Z" fill="black"/>
<path d="M57.2381 56.3086C56.4267 55.6694 52.7977 51.9543 50.5537 49.6151C50.1208 49.1618 49.4023 49.1459 48.9512 49.5811C48.4978 50.0141 48.4842 50.7326 48.9172 51.1837C49.4997 51.7911 54.6382 57.1473 55.8328 58.0903C56.039 58.2535 56.2884 58.3328 56.5332 58.3328C56.8664 58.3328 57.1996 58.1832 57.4262 57.8999C57.8139 57.4102 57.7301 56.6962 57.2381 56.3086Z" fill="black"/>
<path d="M52.7096 58.5823C51.3518 57.4965 47.9405 53.8721 47.1698 53.0335C46.7436 52.5711 46.0296 52.5439 45.5672 52.9655C45.1071 53.3893 45.0754 54.1079 45.4992 54.568C45.54 54.6111 49.611 59.0062 51.2928 60.3526C51.5014 60.518 51.753 60.5996 52 60.5996C52.331 60.5996 52.6619 60.4523 52.8863 60.1758C53.2763 59.6861 53.1969 58.9721 52.7096 58.5823Z" fill="black"/>
<path d="M48.1986 60.8646C46.5824 59.5024 43.2754 55.9822 42.6294 55.2909C42.201 54.833 41.4824 54.8081 41.0268 55.2365C40.569 55.6649 40.5462 56.3811 40.9724 56.839C41.9018 57.8341 45.066 61.1888 46.7366 62.5986C46.9496 62.7777 47.208 62.8661 47.4664 62.8661C47.7883 62.8661 48.1102 62.7278 48.3346 62.4626C48.738 61.9821 48.6768 61.2681 48.1986 60.8646Z" fill="black"/>
<path d="M31.2464 32.5765C29.3038 30.7359 21.536 30.1398 19.2014 30.0015C18.8795 29.9857 18.5826 30.0922 18.3559 30.3075C18.1292 30.5206 18 30.8198 18 31.1326V51.5326C18 52.1582 18.5078 52.6659 19.1334 52.6659H25.9334C26.423 52.6659 26.8582 52.3509 27.01 51.8839C27.1754 51.3762 31.081 39.3901 31.5954 33.4967C31.625 33.1522 31.498 32.8122 31.2464 32.5765ZM25.106 50.3993H20.2666V32.3475C23.9092 32.6354 27.8396 33.261 29.2676 33.9546C28.667 38.9186 25.9492 47.7382 25.106 50.3993Z" fill="black"/>
<path d="M71.2667 32.2666C62.3677 32.2666 57.4309 34.5446 57.2247 34.6398C56.9301 34.778 56.7101 35.0342 56.6195 35.3448C56.5289 35.6553 56.5741 35.9885 56.7441 36.265C58.1449 38.5204 62.5309 51.046 63.3741 54.1014C63.5101 54.5932 63.9567 54.9332 64.4667 54.9332H71.2667C71.8923 54.9332 72.4001 54.4255 72.4001 53.7999V33.3999C72.4001 32.772 71.8923 32.2666 71.2667 32.2666ZM70.1334 52.6666H65.3145C64.2401 49.1668 61.0667 40.0412 59.2965 36.2696C61.0259 35.6825 64.741 34.6738 70.1334 34.5469V52.6666Z" fill="black"/>
</g>
<defs>
<clipPath id="clip0">
<rect width="54.4" height="34" fill="white" transform="translate(18 30)"/>
</clipPath>
</defs>
</svg>
