<svg width="20" height="20" viewBox="0 0 20 20" fill="none" xmlns="http://www.w3.org/2000/svg">
<path d="M6.987 2.06597L6.271 2.28197C5.63239 2.47434 5.06204 2.84516 4.62711 3.35079C4.19217 3.85641 3.91076 4.47578 3.816 5.13597C3.519 7.20397 4.183 9.62197 5.784 12.395C7.381 15.161 9.139 16.943 11.074 17.723C11.6957 17.9735 12.3763 18.0403 13.0349 17.9153C13.6935 17.7904 14.3023 17.4789 14.789 17.018L15.332 16.504C15.6838 16.1707 15.9027 15.7211 15.9479 15.2387C15.9931 14.7563 15.8617 14.2738 15.578 13.881L14.222 12.001C14.0387 11.7472 13.7805 11.5571 13.4837 11.4574C13.1869 11.3577 12.8664 11.3533 12.567 11.445L10.516 12.072L10.463 12.082C10.237 12.115 9.716 11.626 9.066 10.5C8.386 9.32197 8.244 8.63297 8.432 8.45497L9.476 7.48197C9.85724 7.12631 10.1176 6.66024 10.2205 6.14912C10.3235 5.638 10.2638 5.10748 10.05 4.63197L9.39 3.16097C9.1909 2.71787 8.83733 2.36239 8.39532 2.16089C7.95331 1.95939 7.45307 1.92565 6.988 2.06597H6.987ZM8.477 3.57097L9.138 5.04197C9.26654 5.3272 9.30248 5.64554 9.24078 5.95225C9.17908 6.25896 9.02283 6.53863 8.794 6.75197L7.748 7.72597C7.078 8.35897 7.3 9.44197 8.199 11C9.046 12.466 9.818 13.19 10.647 13.064L10.771 13.038L12.859 12.401C12.9588 12.3703 13.0657 12.3717 13.1647 12.4048C13.2637 12.438 13.3498 12.5014 13.411 12.586L14.767 14.466C14.909 14.6624 14.9748 14.9038 14.9522 15.1451C14.9295 15.3864 14.82 15.6113 14.644 15.778L14.101 16.292C13.7533 16.621 13.3185 16.8433 12.8483 16.9325C12.378 17.0216 11.892 16.9739 11.448 16.795C9.75 16.111 8.145 14.484 6.65 11.895C5.152 9.29997 4.546 7.09297 4.806 5.27797C4.87364 4.80628 5.07468 4.36374 5.38543 4.0025C5.69619 3.64125 6.10371 3.37634 6.56 3.23897L7.277 3.02297C7.50946 2.95312 7.75939 2.9702 7.98018 3.07103C8.20097 3.17186 8.37756 3.34955 8.477 3.57097V3.57097Z" fill="white"/>
</svg>
